<?xml version="1.0" standalone="no"?>
<!DOCTYPE svg PUBLIC "-//W3C//DTD SVG 20010904//EN"
 "http://www.w3.org/TR/2001/REC-SVG-20010904/DTD/svg10.dtd">
<svg version="1.0" xmlns="http://www.w3.org/2000/svg"
 width="512.000000pt" height="512.000000pt" viewBox="0 0 512.000000 512.000000"
 preserveAspectRatio="xMidYMid meet">

<g transform="translate(0.000000,512.000000) scale(0.100000,-0.100000)"
fill="#000000" stroke="none">
<path d="M2510 4901 c-14 -4 -39 -15 -55 -24 -17 -9 -519 -505 -1117 -1104
-769 -769 -1092 -1099 -1103 -1125 -17 -42 -20 -124 -6 -161 16 -40 73 -99
116 -118 84 -39 169 -19 248 59 l47 46 0 -1046 0 -1046 28 -53 c20 -39 41 -62
77 -84 l48 -30 1767 0 1767 0 48 30 c36 22 57 45 77 84 l28 53 0 1046 0 1046
48 -46 c54 -54 104 -78 162 -78 148 0 252 159 195 298 -20 46 -2171 2203
-2227 2233 -44 22 -112 32 -148 20z m797 -1253 l743 -743 0 -1132 0 -1133
-1490 0 -1490 0 0 1132 0 1133 742 742 c409 409 745 743 748 743 3 0 339 -334
747 -742z"/>
</g>
</svg>
