<?xml version="1.0" encoding="UTF-8"?>
<!--Generator: Apple Native CoreSVG 175.5-->
<!DOCTYPE svg
PUBLIC "-//W3C//DTD SVG 1.1//EN"
       "http://www.w3.org/Graphics/SVG/1.1/DTD/svg11.dtd">
<svg version="1.1" xmlns="http://www.w3.org/2000/svg" xmlns:xlink="http://www.w3.org/1999/xlink" width="3300" height="2200">
 <!--glyph: "uni100E29.medium", point size: 100.0, font version: "18.0d12e2", template writer version: "101"-->
 <g id="Notes">
  <rect height="2200" id="artboard" style="fill:white;opacity:1" width="3300" x="0" y="0"/>
  <line style="fill:none;stroke:black;opacity:1;stroke-width:0.5;" x1="263" x2="3036" y1="292" y2="292"/>
  <text style="stroke:none;fill:black;font-family:sans-serif;font-size:13;font-weight:bold;" transform="matrix(1 0 0 1 263 322)">Weight/Scale Variations</text>
  <text style="stroke:none;fill:black;font-family:sans-serif;font-size:13;text-anchor:middle;" transform="matrix(1 0 0 1 559.711 322)">Ultralight</text>
  <text style="stroke:none;fill:black;font-family:sans-serif;font-size:13;text-anchor:middle;" transform="matrix(1 0 0 1 856.422 322)">Thin</text>
  <text style="stroke:none;fill:black;font-family:sans-serif;font-size:13;text-anchor:middle;" transform="matrix(1 0 0 1 1153.13 322)">Light</text>
  <text style="stroke:none;fill:black;font-family:sans-serif;font-size:13;text-anchor:middle;" transform="matrix(1 0 0 1 1449.84 322)">Regular</text>
  <text style="stroke:none;fill:black;font-family:sans-serif;font-size:13;text-anchor:middle;" transform="matrix(1 0 0 1 1746.56 322)">Medium</text>
  <text style="stroke:none;fill:black;font-family:sans-serif;font-size:13;text-anchor:middle;" transform="matrix(1 0 0 1 2043.27 322)">Semibold</text>
  <text style="stroke:none;fill:black;font-family:sans-serif;font-size:13;text-anchor:middle;" transform="matrix(1 0 0 1 2339.98 322)">Bold</text>
  <text style="stroke:none;fill:black;font-family:sans-serif;font-size:13;text-anchor:middle;" transform="matrix(1 0 0 1 2636.69 322)">Heavy</text>
  <text style="stroke:none;fill:black;font-family:sans-serif;font-size:13;text-anchor:middle;" transform="matrix(1 0 0 1 2933.4 322)">Black</text>
  <line style="fill:none;stroke:black;opacity:1;stroke-width:0.5;" x1="263" x2="3036" y1="1903" y2="1903"/>
  <g transform="matrix(1 0 0 1 263 1933)">
   <path d="M9.24805 0.830078C13.5547 0.830078 17.1387-2.74414 17.1387-7.05078C17.1387-11.3574 13.5449-14.9316 9.23828-14.9316C4.94141-14.9316 1.36719-11.3574 1.36719-7.05078C1.36719-2.74414 4.95117 0.830078 9.24805 0.830078ZM9.24805-0.654297C5.70312-0.654297 2.87109-3.49609 2.87109-7.05078C2.87109-10.6055 5.69336-13.4473 9.23828-13.4473C12.793-13.4473 15.6445-10.6055 15.6445-7.05078C15.6445-3.49609 12.8027-0.654297 9.24805-0.654297ZM5.6543-7.05078C5.6543-6.62109 5.95703-6.32812 6.40625-6.32812L8.50586-6.32812L8.50586-4.20898C8.50586-3.76953 8.79883-3.4668 9.22852-3.4668C9.67773-3.4668 9.9707-3.76953 9.9707-4.20898L9.9707-6.32812L12.0898-6.32812C12.5293-6.32812 12.832-6.62109 12.832-7.05078C12.832-7.49023 12.5293-7.79297 12.0898-7.79297L9.9707-7.79297L9.9707-9.90234C9.9707-10.3516 9.67773-10.6543 9.22852-10.6543C8.79883-10.6543 8.50586-10.3516 8.50586-9.90234L8.50586-7.79297L6.40625-7.79297C5.95703-7.79297 5.6543-7.49023 5.6543-7.05078Z"/>
  </g>
  <g transform="matrix(1 0 0 1 281.867 1933)">
   <path d="M11.709 2.91016C17.1582 2.91016 21.6699-1.61133 21.6699-7.05078C21.6699-12.5 17.1484-17.0117 11.6992-17.0117C6.25977-17.0117 1.74805-12.5 1.74805-7.05078C1.74805-1.61133 6.26953 2.91016 11.709 2.91016ZM11.709 1.25C7.09961 1.25 3.41797-2.44141 3.41797-7.05078C3.41797-11.6602 7.08984-15.3516 11.6992-15.3516C16.3086-15.3516 20.0098-11.6602 20.0098-7.05078C20.0098-2.44141 16.3184 1.25 11.709 1.25ZM7.17773-7.05078C7.17773-6.57227 7.50977-6.25 8.00781-6.25L10.8789-6.25L10.8789-3.36914C10.8789-2.88086 11.2109-2.53906 11.6895-2.53906C12.1777-2.53906 12.5195-2.87109 12.5195-3.36914L12.5195-6.25L15.4004-6.25C15.8887-6.25 16.2305-6.57227 16.2305-7.05078C16.2305-7.53906 15.8887-7.88086 15.4004-7.88086L12.5195-7.88086L12.5195-10.752C12.5195-11.25 12.1777-11.5918 11.6895-11.5918C11.2109-11.5918 10.8789-11.25 10.8789-10.752L10.8789-7.88086L8.00781-7.88086C7.50977-7.88086 7.17773-7.53906 7.17773-7.05078Z"/>
  </g>
  <g transform="matrix(1 0 0 1 305.646 1933)">
   <path d="M14.9707 5.66406C21.9336 5.66406 27.6953-0.0976562 27.6953-7.05078C27.6953-14.0137 21.9238-19.7754 14.9609-19.7754C8.00781-19.7754 2.25586-14.0137 2.25586-7.05078C2.25586-0.0976562 8.01758 5.66406 14.9707 5.66406ZM14.9707 3.84766C8.93555 3.84766 4.08203-1.01562 4.08203-7.05078C4.08203-13.0957 8.92578-17.9492 14.9609-17.9492C21.0059-17.9492 25.8691-13.0957 25.8691-7.05078C25.8691-1.01562 21.0156 3.84766 14.9707 3.84766ZM9.19922-7.05078C9.19922-6.5332 9.57031-6.17188 10.1172-6.17188L14.0625-6.17188L14.0625-2.2168C14.0625-1.67969 14.4336-1.29883 14.9512-1.29883C15.4883-1.29883 15.8594-1.66992 15.8594-2.2168L15.8594-6.17188L19.8145-6.17188C20.3516-6.17188 20.7324-6.5332 20.7324-7.05078C20.7324-7.59766 20.3613-7.96875 19.8145-7.96875L15.8594-7.96875L15.8594-11.9141C15.8594-12.4609 15.4883-12.8418 14.9512-12.8418C14.4336-12.8418 14.0625-12.4609 14.0625-11.9141L14.0625-7.96875L10.1172-7.96875C9.57031-7.96875 9.19922-7.59766 9.19922-7.05078Z"/>
  </g>
  <text style="stroke:none;fill:black;font-family:sans-serif;font-size:13;font-weight:bold;" transform="matrix(1 0 0 1 263 1953)">Design Variations</text>
  <text style="stroke:none;fill:black;font-family:sans-serif;font-size:13;" transform="matrix(1 0 0 1 263 1971)">Symbols are supported in up to nine weights and three scales.</text>
  <text style="stroke:none;fill:black;font-family:sans-serif;font-size:13;" transform="matrix(1 0 0 1 263 1989)">For optimal layout with text and other symbols, vertically align</text>
  <text style="stroke:none;fill:black;font-family:sans-serif;font-size:13;" transform="matrix(1 0 0 1 263 2007)">symbols with the adjacent text.</text>
  <line style="fill:none;stroke:#00AEEF;stroke-width:0.5;opacity:1.0;" x1="776" x2="776" y1="1919" y2="1933"/>
  <g transform="matrix(1 0 0 1 776 1933)">
   <path d="M3.31055 0.15625C3.82812 0.15625 4.08203-0.0390625 4.26758-0.585938L5.52734-4.0332L11.2891-4.0332L12.5488-0.585938C12.7344-0.0390625 12.9883 0.15625 13.4961 0.15625C14.0137 0.15625 14.3457-0.15625 14.3457-0.644531C14.3457-0.810547 14.3164-0.966797 14.2383-1.17188L9.6582-13.3691C9.43359-13.9648 9.0332-14.2676 8.4082-14.2676C7.80273-14.2676 7.39258-13.9746 7.17773-13.3789L2.59766-1.16211C2.51953-0.957031 2.49023-0.800781 2.49023-0.634766C2.49023-0.146484 2.80273 0.15625 3.31055 0.15625ZM6.00586-5.51758L8.37891-12.0898L8.42773-12.0898L10.8008-5.51758Z"/>
  </g>
  <line style="fill:none;stroke:#00AEEF;stroke-width:0.5;opacity:1.0;" x1="793.197" x2="793.197" y1="1919" y2="1933"/>
  <text style="stroke:none;fill:black;font-family:sans-serif;font-size:13;font-weight:bold;" transform="matrix(1 0 0 1 776 1953)">Margins</text>
  <text style="stroke:none;fill:black;font-family:sans-serif;font-size:13;" transform="matrix(1 0 0 1 776 1971)">Leading and trailing margins on the left and right side of each symbol</text>
  <text style="stroke:none;fill:black;font-family:sans-serif;font-size:13;" transform="matrix(1 0 0 1 776 1989)">can be adjusted by modifying the x-location of the margin guidelines.</text>
  <text style="stroke:none;fill:black;font-family:sans-serif;font-size:13;" transform="matrix(1 0 0 1 776 2007)">Modifications are automatically applied proportionally to all</text>
  <text style="stroke:none;fill:black;font-family:sans-serif;font-size:13;" transform="matrix(1 0 0 1 776 2025)">scales and weights.</text>
  <g transform="matrix(1 0 0 1 1289 1933)">
   <path d="M2.8418 1.86523L4.54102 3.57422C5.40039 4.44336 6.38672 4.38477 7.31445 3.35938L18.0078-8.42773L17.041-9.4043L6.42578 2.27539C6.07422 2.67578 5.74219 2.77344 5.27344 2.30469L4.10156 1.14258C3.63281 0.683594 3.74023 0.341797 4.14062-0.0195312L15.6152-10.8203L14.6387-11.7871L3.04688-0.898438C2.06055 0.0195312 1.98242 0.996094 2.8418 1.86523ZM9.25781-16.3281C8.83789-15.918 8.80859-15.3418 9.04297-14.9512C9.27734-14.5898 9.73633-14.3555 10.3809-14.5215C11.8457-14.8633 13.3691-14.9219 14.7949-13.9844L14.209-12.5293C13.8672-11.6992 14.043-11.1133 14.5801-10.5664L16.875-8.25195C17.3633-7.76367 17.7734-7.74414 18.3398-7.8418L19.4043-8.03711L20.0684-7.36328L20.0293-6.80664C19.9902-6.30859 20.1172-5.92773 20.6055-5.44922L21.3672-4.70703C21.8457-4.22852 22.4609-4.19922 22.9297-4.66797L25.8398-7.58789C26.3086-8.05664 26.2891-8.65234 25.8105-9.13086L25.0391-9.89258C24.5605-10.3711 24.1895-10.5273 23.7109-10.4883L23.1348-10.4395L22.4902-11.0742L22.7344-12.1973C22.8613-12.7637 22.7051-13.2031 22.1191-13.7891L19.9219-15.9766C16.582-19.2969 12.1484-19.2188 9.25781-16.3281ZM10.752-15.957C13.1836-17.7344 16.4746-17.4316 18.7012-15.2051L21.1328-12.793C21.3672-12.5586 21.4062-12.373 21.3379-12.0312L21.0156-10.5469L22.5195-9.0625L23.5059-9.12109C23.7598-9.13086 23.8379-9.11133 24.0332-8.91602L24.6094-8.33984L22.168-5.89844L21.5918-6.47461C21.3965-6.66992 21.3672-6.74805 21.377-7.01172L21.4453-7.98828L19.9512-9.47266L18.4277-9.21875C18.1055-9.15039 17.959-9.17969 17.7148-9.41406L15.7129-11.416C15.459-11.6504 15.4297-11.8164 15.5859-12.1875L16.4648-14.2773C14.9023-15.7324 12.8711-16.3574 10.8398-15.7617C10.6836-15.7227 10.625-15.8496 10.752-15.957Z"/>
  </g>
  <text style="stroke:none;fill:black;font-family:sans-serif;font-size:13;font-weight:bold;" transform="matrix(1 0 0 1 1289 1953)">Exporting</text>
  <text style="stroke:none;fill:black;font-family:sans-serif;font-size:13;" transform="matrix(1 0 0 1 1289 1971)">Symbols should be outlined when exporting to ensure the</text>
  <text style="stroke:none;fill:black;font-family:sans-serif;font-size:13;" transform="matrix(1 0 0 1 1289 1989)">design is preserved when submitting to Xcode.</text>
  <text id="template-version" style="stroke:none;fill:black;font-family:sans-serif;font-size:13;text-anchor:end;" transform="matrix(1 0 0 1 3036 1933)">Template v.4.0</text>
  <text style="stroke:none;fill:black;font-family:sans-serif;font-size:13;text-anchor:end;" transform="matrix(1 0 0 1 3036 1951)">Requires Xcode 14 or greater</text>
  <text id="descriptive-name" style="stroke:none;fill:black;font-family:sans-serif;font-size:13;text-anchor:end;" transform="matrix(1 0 0 1 3036 1969)">Generated from fork.knife</text>
  <text style="stroke:none;fill:black;font-family:sans-serif;font-size:13;text-anchor:end;" transform="matrix(1 0 0 1 3036 1987)">Typeset at 100 points</text>
  <text style="stroke:none;fill:black;font-family:sans-serif;font-size:13;" transform="matrix(1 0 0 1 263 726)">Small</text>
  <text style="stroke:none;fill:black;font-family:sans-serif;font-size:13;" transform="matrix(1 0 0 1 263 1156)">Medium</text>
  <text style="stroke:none;fill:black;font-family:sans-serif;font-size:13;" transform="matrix(1 0 0 1 263 1586)">Large</text>
 </g>
 <g id="Guides">
  <g id="H-reference" style="fill:#27AAE1;stroke:none;" transform="matrix(1 0 0 1 339 696)">
   <path d="M0.993654 0L3.63775 0L29.3281-67.1323L30.0303-67.1323L30.0303-70.459L28.1226-70.459ZM11.6885-24.4799L46.9815-24.4799L46.2315-26.7285L12.4385-26.7285ZM55.1196 0L57.7637 0L30.6382-70.459L29.4326-70.459L29.4326-67.1323Z"/>
  </g>
  <line id="Baseline-S" style="fill:none;stroke:#27AAE1;opacity:1;stroke-width:0.5;" x1="263" x2="3036" y1="696" y2="696"/>
  <line id="Capline-S" style="fill:none;stroke:#27AAE1;opacity:1;stroke-width:0.5;" x1="263" x2="3036" y1="625.541" y2="625.541"/>
  <g id="H-reference" style="fill:#27AAE1;stroke:none;" transform="matrix(1 0 0 1 339 1126)">
   <path d="M0.993654 0L3.63775 0L29.3281-67.1323L30.0303-67.1323L30.0303-70.459L28.1226-70.459ZM11.6885-24.4799L46.9815-24.4799L46.2315-26.7285L12.4385-26.7285ZM55.1196 0L57.7637 0L30.6382-70.459L29.4326-70.459L29.4326-67.1323Z"/>
  </g>
  <line id="Baseline-M" style="fill:none;stroke:#27AAE1;opacity:1;stroke-width:0.5;" x1="263" x2="3036" y1="1126" y2="1126"/>
  <line id="Capline-M" style="fill:none;stroke:#27AAE1;opacity:1;stroke-width:0.5;" x1="263" x2="3036" y1="1055.54" y2="1055.54"/>
  <g id="H-reference" style="fill:#27AAE1;stroke:none;" transform="matrix(1 0 0 1 339 1556)">
   <path d="M0.993654 0L3.63775 0L29.3281-67.1323L30.0303-67.1323L30.0303-70.459L28.1226-70.459ZM11.6885-24.4799L46.9815-24.4799L46.2315-26.7285L12.4385-26.7285ZM55.1196 0L57.7637 0L30.6382-70.459L29.4326-70.459L29.4326-67.1323Z"/>
  </g>
  <line id="Baseline-L" style="fill:none;stroke:#27AAE1;opacity:1;stroke-width:0.5;" x1="263" x2="3036" y1="1556" y2="1556"/>
  <line id="Capline-L" style="fill:none;stroke:#27AAE1;opacity:1;stroke-width:0.5;" x1="263" x2="3036" y1="1485.54" y2="1485.54"/>
  <line id="left-margin-Regular-M" style="fill:none;stroke:#00AEEF;stroke-width:0.5;opacity:1.0;" x1="1403.85" x2="1403.85" y1="1030.79" y2="1150.12"/>
  <line id="right-margin-Regular-M" style="fill:none;stroke:#00AEEF;stroke-width:0.5;opacity:1.0;" x1="1495.84" x2="1495.84" y1="1030.79" y2="1150.12"/>
 </g>
 <g id="Symbols">
  <g id="Black-L" transform="matrix(1 0 0 1 2868.25 1556)">
   <path d="M41.6 38.8364C48.0483 38.8364 51.9696 35.0844 51.8891 29.105L50.5648-44.4494C50.5052-48.1649 51.1943-49.2625 53.7096-50.4391C63.233-54.9341 67.7141-59.7116 66.998-73.5075L65.0559-111.8C64.8379-115.482 62.8242-117.692 59.4755-117.692C56.1475-117.692 54.2143-115.345 54.2727-111.66L54.8112-74.7049C54.8696-72.1212 53.4817-70.6212 51.3759-70.6212C49.0938-70.6212 47.8018-72.0419 47.7434-74.5441L47.0416-113.019C46.9624-116.506 44.8903-118.812 41.6-118.812C38.3305-118.812 36.2584-116.506 36.1792-113.019L35.4774-74.5441C35.419-72.1003 34.0686-70.6212 31.8241-70.6212C29.6795-70.6212 28.2928-72.1212 28.3512-74.7049L28.9261-111.66C28.9845-115.345 27.0721-117.692 23.7441-117.692C20.3966-117.692 18.3037-115.424 18.0857-111.8L16.1436-73.5075C15.4274-59.7116 19.9657-54.9341 29.5112-50.4391C32.0265-49.2625 32.7156-48.1649 32.656-44.4494L31.2732 29.105C31.1344 35.1428 35.2309 38.8364 41.6 38.8364ZM94.5066-19.7773L93.5827 29.0614C93.4779 35.1428 97.5404 38.8364 103.908 38.8364C110.416 38.8364 114.221 35.1676 114.221 29.2287L114.221-113.28C114.221-116.645 112.079-118.812 108.913-118.812C106.272-118.812 104.436-117.409 102.139-114.232C91.4231-99.3383 83.082-67.7057 83.082-42.8273L83.082-38.5409C83.082-33.4698 84.5324-30.4742 89.1873-27.3296L91.3154-25.9154C93.7788-24.211 94.5882-22.8047 94.5066-19.7773Z"/>
  </g>
  <g id="Heavy-L" transform="matrix(1 0 0 1 2573 1556)">
   <path d="M40.6189 37.4711C46.7843 37.4711 50.5534 33.9022 50.473 28.1284L49.1718-44.7223C49.1216-48.1064 49.8713-49.3153 52.2532-50.4231C61.47-54.7113 65.72-59.2721 65.059-72.408L63.1671-110.76C62.9672-114.205 61.0633-116.273 57.9021-116.273C54.771-116.273 52.9475-114.086 52.9921-110.63L53.508-73.5459C53.5526-71.0453 52.1553-69.5812 50.0623-69.5812C47.8298-69.5812 46.4915-70.9705 46.4469-73.385L45.7589-111.934C45.6841-115.215 43.7355-117.342 40.6189-117.342C37.5324-117.342 35.5839-115.215 35.5091-111.934L34.8211-73.385C34.7765-71.0151 33.3936-69.5812 31.1755-69.5812C29.0624-69.5812 27.6707-71.0453 27.7154-73.5459L28.2401-110.63C28.2847-114.086 26.4914-116.273 23.3603-116.273C20.2047-116.273 18.2259-114.161 18.0261-110.76L16.1342-72.408C15.4732-59.2721 19.7622-54.7113 29.0148-50.4231C31.3967-49.3153 32.1464-48.1064 32.0962-44.7223L30.7504 28.1284C30.6253 33.9468 34.5283 37.4711 40.6189 37.4711ZM92.5724-20.1392L91.5443 27.9916C91.4168 33.9468 95.3222 37.4711 101.407 37.4711C107.623 37.4711 111.303 34.0229 111.303 28.3039L111.303-112.024C111.303-115.34 109.177-117.342 106.213-117.342C103.644-117.342 101.885-115.971 99.6506-112.875C89.0771-98.1362 81.143-67.7372 81.143-42.7527L81.143-38.7011C81.143-33.7882 82.6308-30.759 86.9274-27.8536L89.4082-26.1986C91.8027-24.5311 92.6584-23.0205 92.5724-20.1392Z"/>
  </g>
  <g id="Bold-L" transform="matrix(1 0 0 1 2278.09 1556)">
   <path d="M39.4197 35.885C45.2392 35.885 48.8461 32.5315 48.7657 27.0039L47.4878-45.0007C47.4453-48.0223 48.2494-49.3397 50.4848-50.3703C59.3399-54.4273 63.2831-58.7564 62.6838-71.1298L60.8534-109.477C60.6766-112.637 58.9035-114.536 55.9653-114.536C53.0652-114.536 51.3725-112.541 51.4017-109.354L51.8869-72.1984C51.9161-69.783 50.511-68.3724 48.4482-68.3724C46.2846-68.3724 44.8999-69.7158 44.8707-72.0376L44.1982-110.597C44.131-113.631 42.3287-115.551 39.4197-115.551C36.5488-115.551 34.7464-113.631 34.6792-110.597L34.0067-72.0376C33.9775-69.745 32.5636-68.3724 30.3912-68.3724C28.324-68.3724 26.9321-69.783 26.9613-72.1984L27.4245-109.354C27.4537-112.541 25.799-114.536 22.8989-114.536C19.9739-114.536 18.1336-112.608 17.9568-109.477L16.1264-71.1298C15.5271-58.7564 19.4863-54.4273 28.3927-50.3703C30.628-49.3397 31.4321-48.0223 31.3896-45.0007L30.0825 27.0039C29.9729 32.5607 33.6674 35.885 39.4197 35.885ZM90.1303-20.3539L88.9642 26.7146C88.8061 32.5607 92.5491 35.885 98.2882 35.885C104.15 35.885 107.699 32.6834 107.699 27.2186L107.699-110.509C107.699-113.741 105.626-115.551 102.9-115.551C100.423-115.551 98.7644-114.219 96.6289-111.252C86.2172-96.6977 78.7678-67.7831 78.7678-42.6158L78.7678-38.7518C78.7678-33.9864 80.2869-30.941 84.1825-28.298L87.0044-26.4029C89.3218-24.7741 90.224-23.1254 90.1303-20.3539Z"/>
  </g>
  <g id="Semibold-L" transform="matrix(1 0 0 1 1982.62 1556)">
   <path d="M38.593 34.7915C44.174 34.7915 47.6691 31.5866 47.5887 26.2287L46.3268-45.1927C46.2897-47.9642 47.1313-49.3564 49.2656-50.3339C57.8714-54.2314 61.6032-58.4008 61.0464-70.2487L59.2584-108.592C59.0974-111.556 57.4145-113.338 54.6302-113.338C51.8892-113.338 50.2866-111.476 50.3052-108.475L50.7693-71.2695C50.7879-68.9127 49.3774-67.539 47.3355-67.539C45.2195-67.539 43.8027-68.8508 43.7842-71.1087L43.1222-109.675C43.0603-112.54 41.3588-114.316 38.593-114.316C35.8706-114.316 34.1691-112.54 34.1071-109.675L33.4452-71.1087C33.4266-68.8694 31.9913-67.539 29.8505-67.539C27.8149-67.539 26.4229-68.9127 26.4414-71.2695L26.8623-108.475C26.8809-111.476 25.3217-113.338 22.5807-113.338C19.8149-113.338 18.07-111.538 17.909-108.592L16.121-70.2487C15.5642-58.4008 19.2961-54.2314 27.9637-50.3339C30.098-49.3564 30.9396-47.9642 30.9026-45.1927L29.6221 26.2287C29.5231 31.6051 33.0739 34.7915 38.593 34.7915ZM88.4468-20.5019L87.1855 25.8342C87.0063 31.6051 90.6373 34.7915 96.1379 34.7915C101.756 34.7915 105.214 31.76 105.214 26.4704L105.214-109.464C105.214-112.639 103.178-114.316 100.616-114.316C98.2031-114.316 96.6129-113.01 94.5458-110.133C84.2457-95.706 77.1304-67.8147 77.1304-42.5214L77.1304-38.7867C77.1304-34.123 78.671-31.0665 82.2902-28.6043L85.3473-26.5438C87.6115-24.9416 88.5457-23.1978 88.4468-20.5019Z"/>
  </g>
  <g id="Medium-L" transform="matrix(1 0 0 1 1686.85 1556)">
   <path d="M37.9661 33.9624C43.3663 33.9624 46.7767 30.8701 46.6963 25.6409L45.4465-45.3383C45.4135-47.9203 46.2836-49.3692 48.3412-50.3063C56.7579-54.0829 60.3294-58.1313 59.8048-69.5805L58.049-107.921C57.9001-110.737 56.2855-112.43 53.6178-112.43C50.9975-112.43 49.4633-110.668 49.4738-107.808L49.9219-70.5652C49.9325-68.2529 48.5179-66.9071 46.4918-66.9071C44.4118-66.9071 42.9708-68.1949 42.9603-70.4043L42.3064-108.976C42.2484-111.712 40.6233-113.379 37.9661-113.379C35.3564-113.379 33.7313-111.712 33.6733-108.976L33.0195-70.4043C33.0089-68.2054 31.5574-66.9071 29.4404-66.9071C27.4289-66.9071 26.0368-68.2529 26.0473-70.5652L26.436-107.808C26.4465-110.668 24.9598-112.43 22.3395-112.43C19.6943-112.43 18.0217-110.726 17.8728-107.921L16.117-69.5805C15.5924-58.1313 19.1519-54.0829 27.6385-50.3063C29.6962-49.3692 30.5662-47.9203 30.5333-45.3383L29.273 25.6409C29.182 30.8806 32.6239 33.9624 37.9661 33.9624ZM87.1702-20.6142L85.8368 25.1667C85.6415 30.8806 89.1878 33.9624 94.5075 33.9624C99.9407 33.9624 103.33 31.0599 103.33 25.9031L103.33-108.673C103.33-111.803 101.321-113.379 98.8844-113.379C96.5196-113.379 94.9815-112.094 92.9663-109.284C82.7507-94.9541 75.8888-67.8387 75.8888-42.4498L75.8888-38.8132C75.8888-34.2266 77.4457-31.1617 80.8554-28.8366L84.0907-26.6506C86.3146-25.0686 87.2731-23.2527 87.1702-20.6142Z"/>
  </g>
  <g id="Regular-L" transform="matrix(1 0 0 1 1391.37 1556)">
   <path d="M37.1485 32.8809C42.3128 32.8809 45.6126 29.9356 45.5322 24.8742L44.2982-45.5281C44.2706-47.8629 45.1778-49.3858 47.1355-50.2704C55.3056-53.8893 58.6679-57.7796 58.1854-68.7091L56.4715-107.046C56.3383-109.668 54.8128-111.246 52.2973-111.246C49.8345-111.246 48.3894-109.615 48.3894-106.938L48.8167-69.6465C48.8167-67.3922 47.3968-66.0829 45.3914-66.0829C43.3583-66.0829 41.8856-67.3394 41.8856-69.4856L41.2423-108.064C41.1895-110.633 39.6641-112.158 37.1485-112.158C34.6857-112.158 33.1603-110.633 33.1075-108.064L32.4641-69.4856C32.4641-67.3394 30.9915-66.0829 28.9057-66.0829C26.9254-66.0829 25.5331-67.3922 25.5331-69.6465L25.8799-106.938C25.8799-109.615 24.4877-111.246 22.0249-111.246C19.5369-111.246 17.9587-109.668 17.8256-107.046L16.1116-68.7091C15.6291-57.7796 18.9638-53.8893 27.2143-50.2704C29.172-49.3858 30.0792-47.8629 30.0515-45.5281L28.8176 24.8742C28.7372 29.9356 32.0369 32.8809 37.1485 32.8809ZM85.5052-20.7606L84.0776 24.296C83.8615 29.9356 87.297 32.8809 92.3809 32.8809C97.5729 32.8809 100.873 30.1466 100.873 25.1631L100.873-107.64C100.873-110.713 98.9-112.158 96.6257-112.158C94.3237-112.158 92.8536-110.899 90.9061-108.177C80.8008-93.9733 74.2694-67.87 74.2694-42.3565L74.2694-38.8478C74.2694-34.3617 75.8476-31.2858 78.9839-29.1395L82.4518-26.7899C84.6231-25.2343 85.6133-23.3242 85.5052-20.7606Z"/>
  </g>
  <g id="Light-L" transform="matrix(1 0 0 1 1095.87 1556)">
   <path d="M36.4233 32.461C41.3777 32.461 44.7347 29.592 44.6543 24.6452L43.4012-45.3373C43.3545-47.7293 44.1662-49.1376 46.1431-50.0223C54.1795-53.6412 57.1983-57.6079 56.7158-68.3656L55.0401-106.188C54.926-108.675 53.4578-110.177 51.0376-110.177C48.6512-110.177 47.2634-108.641 47.2634-106.06L47.6525-69.2839C47.6525-66.9723 46.2516-65.7584 44.3607-65.7584C42.4231-65.7584 40.9886-66.9386 40.9886-69.123L40.3453-107.186C40.3116-109.64 38.8434-111.108 36.4233-111.108C34.0368-111.108 32.5686-109.64 32.5349-107.186L31.8916-69.123C31.8916-66.9386 30.4571-65.7584 28.4858-65.7584C26.5818-65.7584 25.2278-66.9723 25.2278-69.2839L25.5364-106.06C25.5364-108.641 24.1823-110.177 21.7958-110.177C19.4224-110.177 17.9206-108.675 17.8065-106.188L16.1307-68.3656C15.6482-57.6079 18.6203-53.6412 26.7372-50.0223C28.714-49.1376 29.5257-47.7293 29.479-45.3373L28.226 24.6452C28.1455 29.592 31.5026 32.461 36.4233 32.461ZM83.5203-19.4055L81.9401 23.7234C81.6858 29.592 85.2167 32.461 90.0907 32.461C95.0918 32.461 98.4488 29.7267 98.4488 24.8005L98.4488-106.857C98.4488-109.721 96.7243-111.108 94.5454-111.108C92.3198-111.108 90.9451-109.868 89.2075-107.433C79.1213-93.3053 72.7998-67.9463 72.7998-41.9748L72.7998-37.9317C72.7998-33.2357 74.3016-30.3124 77.438-28.128L80.5242-25.9883C82.6955-24.4136 83.6475-22.3509 83.5203-19.4055Z"/>
  </g>
  <g id="Thin-L" transform="matrix(1 0 0 1 800.759 1556)">
   <path d="M35.4641 31.9057C40.1408 31.9057 43.5736 29.1377 43.4931 24.3423L42.2149-45.0849C42.1429-47.5526 42.8284-48.8095 44.8305-49.6941C52.6903-53.313 55.2547-57.3807 54.7722-67.9112L53.1469-105.052C53.0581-107.363 51.6656-108.763 49.3717-108.763C47.0862-108.763 45.7741-107.354 45.7741-104.899L46.1127-68.8043C46.1127-66.417 44.7371-65.3293 42.9977-65.3293C41.1863-65.3293 39.8023-66.4085 39.8023-68.6434L39.1589-106.025C39.1505-108.328 37.758-109.72 35.4641-109.72C33.1786-109.72 31.7861-108.328 31.7777-106.025L31.1343-68.6434C31.1343-66.4085 29.7503-65.3293 27.9305-65.3293C26.1275-65.3293 24.8239-66.417 24.8239-68.8043L25.082-104.899C25.082-107.354 23.7784-108.763 21.4929-108.763C19.271-108.763 17.8701-107.363 17.7812-105.052L16.156-67.9112C15.6734-57.3807 18.1659-53.313 26.1061-49.6941C28.1082-48.8095 28.7937-47.5526 28.7217-45.0849L27.4435 24.3423C27.363 29.1377 30.7958 31.9057 35.4641 31.9057ZM80.8952-17.6133L79.113 22.9661C78.8082 29.1377 82.4653 31.9057 87.0617 31.9057C91.8104 31.9057 95.2431 29.1714 95.2431 24.3209L95.2431-105.822C95.2431-108.408 93.8467-109.72 91.7941-109.72C89.6694-109.72 88.4209-108.505 86.961-106.449C76.9-92.4219 70.8562-68.0473 70.8562-41.4699L70.8562-36.7201C70.8562-31.7464 72.2571-29.0251 75.3934-26.7902L77.9748-24.9282C80.1461-23.3282 81.0476-21.0635 80.8952-17.6133Z"/>
  </g>
  <g id="Ultralight-L" transform="matrix(1 0 0 1 504.869 1556)">
   <path d="M34.9728 31.6213C39.5073 31.6213 42.9788 28.9049 42.8984 24.1871L41.6072-44.9556C41.5223-47.4621 42.1432-48.6414 44.1582-49.526C51.9275-53.1449 54.2592-57.2643 53.7767-67.6785L52.1773-104.47C52.1013-106.69 50.7477-108.039 48.5184-108.039C46.2846-108.039 45.0114-106.695 45.0114-104.305L45.324-68.5586C45.324-66.1325 43.9614-65.1095 42.2995-65.1095C40.5528-65.1095 39.1946-66.137 39.1946-68.3978L38.5513-105.43C38.5557-107.655 37.2021-109.009 34.9728-109.009C32.739-109.009 31.3853-107.655 31.3898-105.43L30.7465-68.3978C30.7465-66.137 29.3883-65.1095 27.646-65.1095C25.8948-65.1095 24.617-66.1325 24.617-68.5586L24.8493-104.305C24.8493-106.695 23.5716-108.039 21.3378-108.039C19.1934-108.039 17.8442-106.69 17.7683-104.47L16.1689-67.6785C15.6864-57.2643 17.9332-53.1449 25.7829-49.526C27.7979-48.6414 28.4188-47.4621 28.3339-44.9556L27.0427 24.1871C26.9622 28.9049 30.4338 31.6213 34.9728 31.6213ZM79.5506-16.6954L77.665 22.5783C77.3343 28.9049 81.0561 31.6213 85.5102 31.6213C90.1296 31.6213 93.6012 28.887 93.6012 24.0753L93.6012-105.292C93.6012-107.736 92.3729-109.009 90.3848-109.009C88.3119-109.009 87.128-107.807 85.8103-105.944C75.7623-91.9693 69.8607-68.099 69.8607-41.2113L69.8607-36.0995C69.8607-30.9836 71.2098-28.3657 74.3462-26.105L76.669-24.3852C78.8403-22.7723 79.7159-20.4042 79.5506-16.6954Z"/>
  </g>
  <g id="Black-M" transform="matrix(1 0 0 1 2881.83 1126)">
   <path d="M32.9742 23.269C38.1846 23.269 41.3611 20.2151 41.2988 15.4213L40.2503-42.1122C40.1935-45.2833 40.6623-46.0224 42.7283-46.9932C50.3519-50.6534 53.9757-54.5512 53.3735-65.7834L51.8309-95.3289C51.6489-98.368 50.0023-100.191 47.2597-100.191C44.5226-100.191 42.9382-98.2483 42.9953-95.2098L43.4268-66.7598C43.4839-64.6787 42.4193-63.4987 40.7924-63.4987C38.9946-63.4987 38.0386-64.6161 37.9815-66.6352L37.426-96.3104C37.3634-99.1728 35.6597-101.105 32.9742-101.105C30.2941-101.105 28.5904-99.1728 28.5278-96.3104L27.9723-66.6352C27.9152-64.6732 26.9021-63.4987 25.1559-63.4987C23.4778-63.4987 22.4128-64.6787 22.4699-66.7598L22.9533-95.2098C23.0104-98.2483 21.4315-100.191 18.6944-100.191C15.9515-100.191 14.2423-98.3109 14.0603-95.3289L12.5178-65.7834C11.9155-54.5512 15.5967-50.6534 23.2255-46.9932C25.2915-46.0224 25.7603-45.2833 25.7035-42.1122L24.5979 15.4213C24.4785 20.2722 27.8263 23.269 32.9742 23.269ZM74.6116-22.7635L73.9648 15.4212C73.8978 20.2722 77.1932 23.269 82.3413 23.269C87.6086 23.269 90.6709 20.2371 90.6709 15.4546L90.6709-96.6722C90.6709-99.2922 89.0317-101.105 86.4189-101.105C84.3202-101.105 82.8443-99.9935 81.0396-97.5023C72.6179-85.84 65.8344-60.3735 65.8344-41.1282L65.8344-37.5332C65.8344-33.44 66.9156-31.1688 70.83-28.5217L72.1238-27.6615C74.0915-26.3067 74.6736-25.2861 74.6116-22.7635Z"/>
  </g>
  <g id="Heavy-M" transform="matrix(1 0 0 1 2586.44 1126)">
   <path d="M32.082 21.973C37.0353 21.973 40.0577 19.0911 39.9954 14.4878L38.9713-42.3965C38.9255-45.2384 39.4623-46.097 41.3961-47.0004C48.7323-50.4585 52.1619-54.1374 51.6135-64.7403L50.1165-94.3919C49.9506-97.211 48.4059-98.9029 45.8378-98.9029C43.2861-98.9029 41.8037-97.1073 41.8474-94.2837L42.2603-65.6602C42.3039-63.6658 41.2283-62.512 39.6033-62.512C37.8452-62.512 36.8405-63.6057 36.7969-65.5356L36.2548-95.3305C36.1948-98.0022 34.6065-99.765 32.082-99.765C29.5739-99.765 27.9856-98.0022 27.9256-95.3305L27.3835-65.5356C27.3399-63.6494 26.2916-62.512 24.5607-62.512C22.9062-62.512 21.8329-63.6658 21.8765-65.6602L22.3144-94.2837C22.358-97.1073 20.8921-98.9029 18.3403-98.9029C15.7745-98.9029 14.1698-97.1673 14.0039-94.3919L12.5068-64.7403C11.9585-54.1374 15.4294-50.4585 22.7843-47.0004C24.7181-46.097 25.255-45.2384 25.2091-42.3965L24.1413 14.4878C24.0354 19.1347 27.1888 21.973 32.082 21.973ZM72.9039-23.2422L72.1692 14.4282C72.0837 19.1347 75.2166 21.973 80.1076 21.973C85.1068 21.973 88.042 19.1567 88.042 14.584L88.042-95.5164C88.042-98.1082 86.3956-99.765 83.9707-99.765C81.9362-99.765 80.527-98.6831 78.7639-96.2437C70.4795-84.7264 64.0745-60.3972 64.0745-41.0905L64.0745-37.7743C64.0745-33.8551 65.1993-31.5369 68.7633-29.1273L70.4372-28.0123C72.3375-26.6954 72.9685-25.5869 72.9039-23.2422Z"/>
  </g>
  <g id="Bold-M" transform="matrix(1 0 0 1 2291.2 1126)">
   <path d="M31.084 20.5233C35.7495 20.5233 38.5997 17.8337 38.5374 13.4436L37.5406-42.7146C37.5069-45.1882 38.1199-46.1804 39.9059-47.0085C46.9206-50.2404 50.1328-53.6746 49.6448-63.5734L48.1987-93.3437C48.0507-95.9167 46.6202-97.4615 44.2472-97.4615C41.9029-97.4615 40.5346-95.8309 40.5632-93.2477L40.9553-64.4301C40.9838-62.5326 39.896-61.4083 38.2732-61.4083C36.5595-61.4083 35.5002-62.4755 35.4716-64.3055L34.9446-94.2342C34.8875-96.6929 33.4284-98.2661 31.084-98.2661C28.7682-98.2661 27.3091-96.6929 27.2519-94.2342L26.725-64.3055C26.6964-62.504 25.6085-61.4083 23.8948-61.4083C22.2669-61.4083 21.1842-62.5326 21.2127-64.4301L21.5996-93.2477C21.6282-95.8309 20.2886-97.4615 17.9443-97.4615C15.5764-97.4615 14.0887-95.8881 13.9407-93.3437L12.4946-63.5734C12.0066-53.6746 15.2423-50.2404 22.2907-47.0085C24.0767-46.1804 24.6897-45.1882 24.656-42.7146L23.6306 13.4436C23.5398 17.8623 26.4756 20.5233 31.084 20.5233ZM70.9936-23.7777L70.1607 13.3174C70.0543 17.8623 73.0056 20.5233 77.6089 20.5233C82.3081 20.5233 85.1012 17.9482 85.1012 13.6102L85.1012-94.2234C85.1012-96.7837 83.4468-98.2661 81.2322-98.2661C79.2694-98.2661 77.9347-97.2173 76.2181-94.8359C68.0874-83.4807 62.1057-60.4237 62.1057-41.0484L62.1057-38.044C62.1057-34.3195 63.2794-31.9488 66.4515-29.8047L68.5505-28.4047C70.3755-27.1301 71.061-25.9234 70.9936-23.7777Z"/>
  </g>
  <g id="Semibold-M" transform="matrix(1 0 0 1 1995.5 1126)">
   <path d="M30.3959 19.5239C34.8632 19.5239 37.5946 16.9669 37.5322 12.7237L36.5543-42.9339C36.529-45.1537 37.1945-46.2379 38.8785-47.014C45.6716-50.0901 48.734-53.3555 48.2875-62.7689L46.8766-92.6211C46.7409-95.0244 45.389-96.4678 43.1506-96.4678C40.9493-96.4678 39.6597-94.951 39.6779-92.5335L40.0556-63.5821C40.0738-61.7514 38.9776-60.6473 37.3561-60.6473C35.6731-60.6473 34.5762-61.6962 34.558-63.4575L34.0414-93.4784C33.9862-95.7902 32.6162-97.2328 30.3959-97.2328C28.2127-97.2328 26.8427-95.7902 26.7875-93.4784L26.2709-63.4575C26.2528-61.7144 25.1377-60.6473 23.4358-60.6473C21.8261-60.6473 20.737-61.7514 20.7551-63.5821L21.1069-92.5335C21.1251-94.951 19.8726-96.4678 17.6712-96.4678C15.4399-96.4678 14.0328-95.0062 13.8972-92.6211L12.4862-62.7689C12.0397-53.3555 15.1132-50.0901 21.9505-47.014C23.6345-46.2379 24.2999-45.1537 24.2747-42.9339L23.2785 12.7237C23.1981 16.9851 25.9839 19.5239 30.3959 19.5239ZM69.6766-24.1469L68.776 12.5517C68.6553 16.9851 71.4814 19.5239 75.8863 19.5239C80.3788 19.5239 83.0738 17.1151 83.0738 12.9389L83.0738-93.332C83.0738-95.8706 81.4138-97.2328 79.3442-97.2328C77.4309-97.2328 76.1477-96.2068 74.4631-93.8653C66.4383-82.6219 60.7485-60.442 60.7485-41.0193L60.7485-38.2299C60.7485-34.6396 61.9558-32.2327 64.8578-30.2718L67.2499-28.6751C69.0229-27.4298 69.746-26.1553 69.6766-24.1469Z"/>
  </g>
  <g id="Medium-M" transform="matrix(1 0 0 1 1699.56 1126)">
   <path d="M29.8743 18.7662C34.1911 18.7662 36.8324 16.3097 36.7701 12.1779L35.8064-43.1002C35.7875-45.1274 36.4928-46.2815 38.0995-47.0182C44.7245-49.9761 47.6734-53.1135 47.2584-62.1589L45.8741-92.0732C45.7478-94.3478 44.4556-95.7143 42.3192-95.7143C40.2262-95.7143 38.9963-94.2838 39.0066-91.992L39.3735-62.9391C39.3838-61.1591 38.2812-60.0704 36.6608-60.0704C35.001-60.0704 33.8756-61.1054 33.8653-62.8145L33.3566-92.9054C33.3029-95.1057 32.0004-96.4493 29.8743-96.4493C27.7916-96.4493 26.4891-95.1057 26.4354-92.9054L25.9267-62.8145C25.9164-61.1157 24.7806-60.0704 23.0877-60.0704C21.4919-60.0704 20.3979-61.1591 20.4082-62.9391L20.7333-91.992C20.7436-94.2838 19.5571-95.7143 17.4641-95.7143C15.3364-95.7143 13.9904-94.3375 13.8641-92.0732L12.4798-62.1589C12.0649-53.1135 15.0154-49.9761 21.6925-47.0182C23.2992-46.2815 24.0044-45.1274 23.9856-43.1002L23.0116 12.1779C22.939 16.3199 25.6111 18.7662 29.8743 18.7662ZM68.678-24.4269L67.726 11.971C67.5945 16.3199 70.3256 18.7662 74.5801 18.7662C78.9158 18.7662 81.5366 16.4834 81.5366 12.4298L81.5366-92.6561C81.5366-95.1783 79.8724-96.4493 77.9127-96.4493C76.0368-96.4493 74.7926-95.4405 73.1324-93.1294C65.1879-81.9708 59.7194-60.4559 59.7194-40.9973L59.7194-38.3709C59.7194-34.8823 60.9522-32.448 63.6493-30.6259L66.2637-28.8803C67.9973-27.657 68.7489-26.3312 68.678-24.4269Z"/>
  </g>
  <g id="Regular-M" transform="matrix(1 0 0 1 1403.85 1126)">
   <path d="M29.1938 17.7777C33.3144 17.7777 35.8383 15.4524 35.776 11.4659L34.8309-43.317C34.8203-45.0932 35.5775-46.3383 37.0834-47.0237C43.4892-49.8274 46.2899-52.7979 45.9161-61.3633L44.5665-91.3585C44.4524-93.4653 43.238-94.7315 41.2347-94.7315C39.2831-94.7315 38.131-93.4136 38.131-91.2856L38.4837-62.1004C38.4837-60.3865 37.3728-59.3178 35.7539-59.3178C34.1244-59.3178 32.9617-60.3348 32.9617-61.9758L32.4633-92.1579C32.4115-94.213 31.1971-95.4274 29.1938-95.4274C27.2422-95.4274 26.0278-94.213 25.976-92.1579L25.4776-61.9758C25.4776-60.3348 24.3149-59.3178 22.6337-59.3178C21.056-59.3178 19.9556-60.3865 19.9556-62.1004L20.246-91.2856C20.246-93.4136 19.1456-94.7315 17.1941-94.7315C15.2013-94.7315 13.9351-93.4653 13.8211-91.3585L12.4715-61.3633C12.0977-52.7979 14.8878-49.8274 21.356-47.0237C22.8618-46.3383 23.619-45.0932 23.6085-43.317L22.6633 11.4659C22.601 15.4524 25.1249 17.7777 29.1938 17.7777ZM67.3755-24.792L66.3566 11.2136C66.2109 15.4524 68.8181 17.7777 72.8765 17.7777C77.0077 17.7777 79.5315 15.6594 79.5315 11.7658L79.5315-91.7745C79.5315-94.2753 77.8618-95.4274 76.0454-95.4274C74.2185-95.4274 73.0252-94.4411 71.3967-92.1695C63.5569-81.1214 58.377-60.4739 58.377-40.9686L58.377-38.5548C58.377-35.1989 59.6432-32.7288 62.0731-31.0878L64.9773-29.1478C66.6595-27.9534 67.4484-26.5606 67.3755-24.792Z"/>
  </g>
  <g id="Light-M" transform="matrix(1 0 0 1 1108.22 1126)">
   <path d="M28.5436 17.4013C32.476 17.4013 35.0512 15.1444 34.9889 11.2605L34.0266-43.1459C33.999-44.9735 34.6706-46.1159 36.1936-46.8012C42.4797-49.6049 44.9724-52.6439 44.5985-61.0553L43.2832-90.5885C43.1862-92.5755 42.0231-93.7733 40.1054-93.7733C38.2223-93.7733 37.1215-92.5409 37.1215-90.4985L37.44-61.7753C37.44-60.0101 36.3461-59.0269 34.8299-59.0269C33.286-59.0269 32.1575-59.9754 32.1575-61.6507L31.6591-91.3708C31.6244-93.3232 30.4613-94.4863 28.5436-94.4863C26.6605-94.4863 25.4974-93.3232 25.4627-91.3708L24.9643-61.6507C24.9643-59.9754 23.8358-59.0269 22.2573-59.0269C20.748-59.0269 19.6818-60.0101 19.6818-61.7753L19.938-90.4985C19.938-92.5409 18.8719-93.7733 16.9888-93.7733C15.0987-93.7733 13.9009-92.5755 13.804-90.5885L12.4886-61.0553C12.1148-52.6439 14.5798-49.6049 20.9282-46.8012C22.4512-46.1159 23.1228-44.9735 23.0951-43.1459L22.1329 11.2605C22.0706 15.1444 24.6458 17.4013 28.5436 17.4013ZM65.596-23.5771L64.4401 10.7003C64.2602 15.1444 66.953 17.4013 70.8231 17.4013C74.7832 17.4013 77.3584 15.2829 77.3584 11.4407L77.3584-91.073C77.3584-93.3855 75.9112-94.4863 74.1804-94.4863C72.4219-94.4863 71.3141-93.5171 69.8738-91.5021C62.0511-80.5226 57.0595-60.5424 57.0595-40.6264L57.0595-37.7335C57.0595-34.1893 58.2572-31.8561 60.6871-30.1809L63.2491-28.4291C64.9313-27.2177 65.686-25.688 65.596-23.5771Z"/>
  </g>
  <g id="Thin-M" transform="matrix(1 0 0 1 812.95 1126)">
   <path d="M27.6836 16.9034C31.3671 16.9034 34.0102 14.737 33.9479 10.989L32.963-42.9196C32.9127-44.815 33.4712-45.8217 35.0168-46.507C41.1445-49.3107 43.2298-52.4402 42.856-60.648L41.5859-89.5701C41.5116-91.3988 40.4163-92.506 38.6117-92.506C36.8192-92.506 35.7863-91.3867 35.7863-89.4575L36.0595-61.3453C36.0595-59.5122 34.9883-58.6422 33.6078-58.6422C32.1771-58.6422 31.0939-59.5002 31.0939-61.2207L30.5954-90.3298C30.5834-92.1464 29.4882-93.2416 27.6836-93.2416C25.891-93.2416 24.7958-92.1464 24.7838-90.3298L24.2854-61.2207C24.2854-59.5002 23.2022-58.6422 21.7594-58.6422C20.3406-58.6422 19.3197-59.5122 19.3197-61.3453L19.5307-89.4575C19.5307-91.3867 18.5098-92.506 16.7172-92.506C14.9629-92.506 13.8557-91.3988 13.7813-89.5701L12.5112-60.648C12.1374-52.4402 14.1725-49.3107 20.3624-46.507C21.908-45.8217 22.4665-44.815 22.4162-42.9196L21.4314 10.989C21.3691 14.737 24.0121 16.9034 27.6836 16.9034ZM63.2424-21.9703L61.9055 10.0214C61.6803 14.737 64.4863 16.9034 68.1075 16.9034C71.8413 16.9034 74.4843 14.7851 74.4843 11.0107L74.4843-90.1451C74.4843-92.2087 73.3313-93.2416 71.7136-93.2416C70.0456-93.2416 69.051-92.295 67.8597-90.6195C60.0596-79.7305 55.3169-60.6329 55.3169-40.1737L55.3169-36.6472C55.3169-32.8541 56.4242-30.702 58.854-28.9815L60.9634-27.4786C62.6456-26.2445 63.355-24.5338 63.2424-21.9703Z"/>
  </g>
  <g id="Ultralight-M" transform="matrix(1 0 0 1 516.975 1126)">
   <path d="M27.2431 16.6484C30.7991 16.6484 33.477 14.5284 33.4147 10.8499L32.4182-42.8037C32.3563-44.7339 32.8569-45.671 34.4141-46.3563C40.4606-49.1601 42.3373-52.3359 41.9635-60.4393L40.7165-89.0485C40.6538-90.796 39.5934-91.8569 37.8467-91.8569C36.1005-91.8569 35.1024-90.7956 35.1024-88.9243L35.3524-61.1251C35.3524-59.2572 34.2928-58.4451 32.9819-58.4451C31.6091-58.4451 30.5491-59.2568 30.5491-61.0005L30.0506-89.7966C30.0502-91.5437 28.9898-92.6041 27.2431-92.6041C25.4969-92.6041 24.4365-91.5437 24.4361-89.7966L23.9376-61.0005C23.9376-59.2568 22.8776-58.4451 21.5044-58.4451C20.132-58.4451 19.1343-59.2572 19.1343-61.1251L19.322-88.9243C19.322-90.7956 18.3243-91.8569 16.5781-91.8569C14.8933-91.8569 13.8325-90.796 13.7698-89.0485L12.5228-60.4393C12.149-52.3359 13.9638-49.1601 20.0726-46.3563C21.6298-45.671 22.1304-44.7339 22.0685-42.8037L21.072 10.8499C21.0097 14.5284 23.6876 16.6484 27.2431 16.6484ZM62.0369-21.1474L60.6073 9.67366C60.3589 14.5284 63.2228 16.6484 66.7165 16.6484C70.3344 16.6484 73.0122 14.5301 73.0122 10.7905L73.0122-89.6699C73.0122-91.606 72.0099-92.6041 70.4502-92.6041C68.8286-92.6041 67.8919-91.6691 66.8281-90.1675C59.0396-79.3248 54.4244-60.6793 54.4244-39.9419L54.4244-36.0908C54.4244-32.1702 55.4853-30.1108 57.9151-28.3671L59.7927-26.9918C61.4749-25.7461 62.1611-23.9427 62.0369-21.1474Z"/>
  </g>
  <g id="Black-S" transform="matrix(1 0 0 1 2892.65 696)">
   <path d="M26.0742 10.9863C30.2246 10.9863 32.7637 8.54492 32.7148 4.73633L31.8848-40.5273C31.8359-43.1152 32.1777-43.6523 33.8379-44.4336C39.8926-47.3633 42.7734-50.4883 42.2852-59.4727L41.0645-82.5684C40.918-85.0098 39.5996-86.4746 37.4023-86.4746C35.2051-86.4746 33.9355-84.9121 33.9844-82.4707L34.3262-60.2539C34.375-58.5938 33.5449-57.666 32.2754-57.666C30.8594-57.666 30.127-58.5449 30.0781-60.1562L29.6387-83.3496C29.5898-85.6445 28.2227-87.207 26.0742-87.207C23.9258-87.207 22.5586-85.6445 22.5098-83.3496L22.0703-60.1562C22.0215-58.5938 21.2402-57.666 19.873-57.666C18.5547-57.666 17.7246-58.5938 17.7734-60.2539L18.1641-82.4707C18.2129-84.9121 16.9434-86.4746 14.7461-86.4746C12.5488-86.4746 11.1816-84.9609 11.0352-82.5684L9.81445-59.4727C9.32617-50.4883 12.2559-47.3633 18.3105-44.4336C19.9707-43.6523 20.3125-43.1152 20.2637-40.5273L19.3848 4.73633C19.2871 8.59375 21.9727 10.9863 26.0742 10.9863ZM58.8867-25.2441L58.3984 4.73633C58.3496 8.59375 60.9863 10.9863 65.0879 10.9863C69.2871 10.9863 71.7285 8.54492 71.7285 4.73633L71.7285-83.6914C71.7285-85.7422 70.459-87.207 68.3594-87.207C66.6992-87.207 65.5273-86.3281 64.1113-84.375C57.4707-75.1953 52.0508-54.9316 52.0508-39.8438L52.0508-36.9141C52.0508-33.6426 52.8809-31.8848 56.0547-29.7363L56.9336-29.1504C58.4961-28.0762 58.9355-27.2949 58.8867-25.2441Z"/>
  </g>
  <g id="Heavy-S" transform="matrix(1 0 0 1 2596.93 696)">
   <path d="M25.3943 9.92608C29.3487 9.92608 31.7495 7.62296 31.7007 3.96419L30.8937-40.7924C30.8564-43.0922 31.2673-43.7445 32.8122-44.4682C38.6364-47.225 41.3905-50.1541 40.9483-58.6198L39.7622-81.8654C39.6272-84.1339 38.3895-85.495 36.3306-85.495C34.2831-85.495 33.0943-84.0478 33.1316-81.7792L33.4618-59.355C33.4991-57.7755 32.6575-56.8593 31.3765-56.8593C29.9835-56.8593 29.205-57.7267 29.1677-59.2573L28.7398-82.612C28.6909-84.7571 27.4159-86.1814 25.3943-86.1814C23.3841-86.1814 22.1091-84.7571 22.0603-82.612L21.6324-59.2573C21.5951-57.764 20.7793-56.8593 19.4121-56.8593C18.1052-56.8593 17.2636-57.7755 17.3009-59.355L17.657-81.7792C17.6943-84.0478 16.517-85.495 14.4695-85.495C12.4105-85.495 11.124-84.0966 10.9891-81.8654L9.80293-58.6198C9.36075-50.1541 12.1521-47.225 17.9879-44.4682C19.5328-43.7445 19.9437-43.0922 19.9064-40.7924L19.0621 3.96419C18.9759 7.66027 21.4886 9.92608 25.3943 9.92608ZM57.6536-25.8088L57.1077 3.95266C57.0473 7.66027 59.5342 9.92608 63.4399 9.92608C67.4317 9.92608 69.7578 7.66906 69.7578 4.03334L69.7578-82.7925C69.7578-84.8433 68.4537-86.1814 66.5039-86.1814C64.8899-86.1814 63.7641-85.3255 62.3596-83.3839C55.8342-74.3195 50.7139-54.9432 50.7139-39.8553L50.7139-37.2252C50.7139-34.1266 51.5901-32.3112 54.4643-30.3702L55.712-29.5422C57.2169-28.5026 57.7024-27.6637 57.6536-25.8088Z"/>
  </g>
  <g id="Bold-S" transform="matrix(1 0 0 1 2301.32 696)">
   <path d="M24.6338 8.74023C28.3691 8.74023 30.6152 6.5918 30.5664 3.10059L29.7852-41.0889C29.7607-43.0664 30.249-43.8477 31.665-44.5068C37.2314-47.0703 39.8438-49.7803 39.4531-57.666L38.3057-81.0791C38.1836-83.1543 37.0361-84.3994 35.1318-84.3994C33.252-84.3994 32.1533-83.0811 32.1777-81.0059L32.4951-58.3496C32.5195-56.8604 31.665-55.957 30.3711-55.957C29.0039-55.957 28.1738-56.8115 28.1494-58.252L27.7344-81.7871C27.6855-83.7646 26.5137-85.0342 24.6338-85.0342C22.7783-85.0342 21.6064-83.7646 21.5576-81.7871L21.1426-58.252C21.1182-56.8359 20.2637-55.957 18.8965-55.957C17.6025-55.957 16.748-56.8604 16.7725-58.3496L17.0898-81.0059C17.1143-83.0811 16.04-84.3994 14.1602-84.3994C12.2559-84.3994 11.0596-83.1299 10.9375-81.0791L9.79004-57.666C9.39941-49.7803 12.0361-47.0703 17.627-44.5068C19.043-43.8477 19.5312-43.0664 19.5068-41.0889L18.7012 3.10059C18.6279 6.61621 20.9473 8.74023 24.6338 8.74023ZM56.2744-26.4404L55.6641 3.07617C55.5908 6.61621 57.9102 8.74023 61.5967 8.74023C65.3564 8.74023 67.5537 6.68945 67.5537 3.24707L67.5537-81.7871C67.5537-83.8379 66.2109-85.0342 64.4287-85.0342C62.8662-85.0342 61.792-84.2041 60.4004-82.2754C54.0039-73.3398 49.2188-54.9561 49.2188-39.8682L49.2188-37.5732C49.2188-34.668 50.1465-32.7881 52.6855-31.0791L54.3457-29.9805C55.7861-28.9795 56.3232-28.0762 56.2744-26.4404Z"/>
  </g>
  <g id="Semibold-S" transform="matrix(1 0 0 1 2005.37 696)">
   <path d="M24.1095 7.92266C27.6938 7.92266 29.8332 5.88086 29.7844 2.50518L29.0209-41.2933C29.0054-43.0486 29.547-43.9188 30.8741-44.5335C36.2628-46.9637 38.7773-49.5226 38.4223-57.0084L37.3015-80.537C37.1883-82.4789 36.103-83.644 34.3054-83.644C32.541-83.644 31.5046-82.4146 31.5201-80.4727L31.8286-57.6564C31.8441-56.2294 30.9808-55.335 29.6779-55.335C28.3285-55.335 27.4629-56.1806 27.4474-57.5588L27.0412-81.2184C26.9924-83.0804 25.8916-84.2433 24.1095-84.2433C22.3606-84.2433 21.2599-83.0804 21.211-81.2184L20.8049-57.5588C20.7894-56.1961 19.9082-55.335 18.541-55.335C17.256-55.335 16.3926-56.2294 16.4081-57.6564L16.6988-80.4727C16.7144-82.4146 15.7112-83.644 13.9469-83.644C12.1492-83.644 11.0151-82.4634 10.902-80.537L9.78115-57.0084C9.42607-49.5226 11.9562-46.9637 17.3781-44.5335C18.7053-43.9188 19.2469-43.0486 19.2313-41.2933L18.4523 2.50518C18.388 5.89639 20.574 7.92266 24.1095 7.92266ZM55.3235-26.8759L54.6688 2.47187C54.5866 5.89639 56.7904 7.92266 60.3259 7.92266C63.9257 7.92266 66.0341 6.01406 66.0341 2.70498L66.0341-81.0939C66.0341-83.1447 64.6646-84.2433 62.9979-84.2433C61.471-84.2433 60.4323-83.431 59.0496-81.5111C52.742-72.6645 48.1879-54.9649 48.1879-39.8771L48.1879-37.8132C48.1879-35.0412 49.1512-33.1169 51.4592-31.5679L53.4037-30.2826C54.7997-29.3083 55.3724-28.3605 55.3235-26.8759Z"/>
  </g>
  <g id="Medium-S" transform="matrix(1 0 0 1 1709.23 696)">
   <path d="M23.7119 7.30273C27.1816 7.30273 29.2402 5.3418 29.1914 2.05371L28.4414-41.4482C28.4326-43.0352 29.0146-43.9727 30.2744-44.5537C35.5283-46.8828 37.9688-49.3271 37.6406-56.5098L36.54-80.126C36.4336-81.9668 35.3955-83.0713 33.6787-83.0713C32.002-83.0713 31.0127-81.9092 31.0215-80.0684L31.3232-57.1309C31.332-55.751 30.4619-54.8633 29.1523-54.8633C27.8164-54.8633 26.9238-55.7021 26.915-57.0332L26.5156-80.7871C26.4668-82.5615 25.4199-83.6436 23.7119-83.6436C22.0439-83.6436 20.9971-82.5615 20.9482-80.7871L20.5488-57.0332C20.54-55.7109 19.6387-54.8633 18.2715-54.8633C16.9932-54.8633 16.123-55.751 16.1318-57.1309L16.4023-80.0684C16.4111-81.9092 15.4619-83.0713 13.7852-83.0713C12.0684-83.0713 10.9814-81.958 10.875-80.126L9.77441-56.5098C9.44629-49.3271 11.8955-46.8828 17.1895-44.5537C18.4492-43.9727 19.0312-43.0352 19.0225-41.4482L18.2637 2.05371C18.2061 5.35059 20.291 7.30273 23.7119 7.30273ZM54.6025-27.2061L53.9141 2.01367C53.8252 5.35059 55.9414 7.30273 59.3623 7.30273C62.8408 7.30273 64.8818 5.50195 64.8818 2.29395L64.8818-80.5684C64.8818-82.6191 63.4922-83.6436 61.9131-83.6436C60.4131-83.6436 59.4014-82.8447 58.0254-80.9316C51.7852-72.1523 47.4062-54.9717 47.4062-39.8838L47.4062-37.9951C47.4062-35.3242 48.3965-33.3662 50.5293-31.9385L52.6895-30.5117C54.0518-29.5576 54.6514-28.5762 54.6025-27.2061Z"/>
  </g>
  <g id="Regular-S" transform="matrix(1 0 0 1 1413.27 696)">
   <path d="M23.1934 6.49414C26.5137 6.49414 28.4668 4.63867 28.418 1.46484L27.6855-41.6504C27.6855-43.0176 28.3203-44.043 29.4922-44.5801C34.5703-46.7773 36.9141-49.0723 36.6211-55.8594L35.5469-79.5898C35.4492-81.2988 34.4727-82.3242 32.8613-82.3242C31.2988-82.3242 30.3711-81.25 30.3711-79.541L30.6641-56.4453C30.6641-55.127 29.7852-54.248 28.4668-54.248C27.1484-54.248 26.2207-55.0781 26.2207-56.3477L25.8301-80.2246C25.7812-81.8848 24.8047-82.8613 23.1934-82.8613C21.6309-82.8613 20.6543-81.8848 20.6055-80.2246L20.2148-56.3477C20.2148-55.0781 19.2871-54.248 17.9199-54.248C16.6504-54.248 15.7715-55.127 15.7715-56.4453L16.0156-79.541C16.0156-81.25 15.1367-82.3242 13.5742-82.3242C11.9629-82.3242 10.9375-81.2988 10.8398-79.5898L9.76562-55.8594C9.47266-49.0723 11.8164-46.7773 16.9434-44.5801C18.1152-44.043 18.75-43.0176 18.75-41.6504L18.0176 1.46484C17.9688 4.63867 19.9219 6.49414 23.1934 6.49414ZM53.6621-27.6367L52.9297 1.41602C52.832 4.63867 54.834 6.49414 58.1055 6.49414C61.4258 6.49414 63.3789 4.83398 63.3789 1.75781L63.3789-79.8828C63.3789-81.9336 61.9629-82.8613 60.498-82.8613C59.0332-82.8613 58.0566-82.0801 56.6895-80.1758C50.5371-71.4844 46.3867-54.9805 46.3867-39.8926L46.3867-38.2324C46.3867-35.6934 47.4121-33.6914 49.3164-32.4219L51.7578-30.8105C53.0762-29.8828 53.7109-28.8574 53.6621-27.6367Z"/>
  </g>
  <g id="Light-S" transform="matrix(1 0 0 1 1117.52 696)">
   <path d="M22.6182 6.16114C25.772 6.16114 27.7705 4.36621 27.7217 1.2832L26.9741-41.499C26.959-42.9116 27.5181-43.8462 28.7051-44.3833C33.6773-46.5806 35.7485-48.936 35.4556-55.5869L34.4116-78.9087C34.3291-80.5117 33.398-81.4766 31.8623-81.4766C30.3604-81.4766 29.478-80.478 29.478-78.8447L29.7407-56.1577C29.7407-54.7939 28.877-53.9907 27.6494-53.9907C26.4067-53.9907 25.5093-54.7603 25.5093-56.0601L25.1187-79.5283C25.085-81.0977 24.1538-82.0288 22.6182-82.0288C21.1162-82.0288 20.1851-81.0977 20.1514-79.5283L19.7607-56.0601C19.7607-54.7603 18.8633-53.9907 17.5869-53.9907C16.3779-53.9907 15.5293-54.7939 15.5293-56.1577L15.7432-78.8447C15.7432-80.478 14.8945-81.4766 13.3926-81.4766C11.8721-81.4766 10.9072-80.5117 10.8247-78.9087L9.78076-55.5869C9.48779-48.936 11.5439-46.5806 16.5649-44.3833C17.752-43.8462 18.311-42.9116 18.2959-41.499L17.5483 1.2832C17.4995 4.36621 19.4981 6.16114 22.6182 6.16114ZM52.0879-26.562L51.2344 0.961918C51.1065 4.36621 53.1841 6.16114 56.2891 6.16114C59.458 6.16114 61.4566 4.50098 61.4566 1.47022L61.4566-79.2622C61.4566-81.1465 60.2373-82.0288 58.8482-82.0288C57.4439-82.0288 56.543-81.2627 55.3423-79.5855C49.2051-70.9546 45.2212-55.041 45.2212-39.5898L45.2212-37.5059C45.2212-34.8003 46.186-32.9194 48.0903-31.6196L50.229-30.1748C51.5474-29.2319 52.1519-28.0855 52.0879-26.562Z"/>
  </g>
  <g id="Thin-S" transform="matrix(1 0 0 1 822.082 696)">
   <path d="M21.8574 5.72071C24.791 5.72071 26.8496 4.00586 26.8008 1.04297L26.0332-41.2988C25.9981-42.7715 26.457-43.5859 27.6641-44.1231C32.4961-46.3203 34.2071-48.7559 33.9141-55.2266L32.9102-78.0078C32.8477-79.4707 31.9766-80.3555 30.541-80.3555C29.1192-80.3555 28.2969-79.457 28.2969-77.9238L28.5195-55.7773C28.5195-54.3535 27.6758-53.6504 26.5684-53.6504C25.4258-53.6504 24.5684-54.3398 24.5684-55.6797L24.1777-78.6074C24.1641-80.0567 23.293-80.9277 21.8574-80.9277C20.4356-80.9277 19.5645-80.0567 19.5508-78.6074L19.1602-55.6797C19.1602-54.3398 18.3027-53.6504 17.1465-53.6504C16.0176-53.6504 15.209-54.3535 15.209-55.7773L15.3828-77.9238C15.3828-79.457 14.5742-80.3555 13.1523-80.3555C11.752-80.3555 10.8672-79.4707 10.8047-78.0078L9.80078-55.2266C9.50781-48.7559 11.1836-46.3203 16.0645-44.1231C17.2715-43.5859 17.7305-42.7715 17.6953-41.2988L16.9277 1.04297C16.8789 4.00586 18.9375 5.72071 21.8574 5.72071ZM50.0059-25.1406L48.9922 0.361336C48.8243 4.00586 51.002 5.72071 53.8868 5.72071C56.8555 5.72071 58.9141 4.06055 58.9141 1.08985L58.9141-78.4414C58.9141-80.1055 57.9551-80.9277 56.666-80.9277C55.3418-80.9277 54.541-80.1817 53.5606-78.8047C47.4434-70.2539 43.6797-55.1211 43.6797-39.1895L43.6797-36.5449C43.6797-33.6192 44.5645-31.8985 46.4688-30.5586L48.2071-29.334C49.5254-28.3711 50.0899-27.0645 50.0059-25.1406Z"/>
  </g>
  <g id="Ultralight-S" transform="matrix(1 0 0 1 526.022 696)">
   <path d="M21.4678 5.49513C24.2886 5.49513 26.3779 3.8213 26.3291 0.919926L25.5513-41.1963C25.5059-42.6997 25.9136-43.4526 27.1309-43.9898C31.8911-46.187 33.4175-48.6636 33.1245-55.042L32.1411-77.5464C32.0889-78.9375 31.2486-79.7813 29.8643-79.7813C28.4834-79.7813 27.6919-78.9341 27.6919-77.4522L27.8941-55.5825C27.8941-54.1279 27.0606-53.4761 26.0147-53.4761C24.9234-53.4761 24.0864-54.1245 24.0864-55.4849L23.6958-78.1358C23.6924-79.5235 22.8521-80.3638 21.4678-80.3638C20.0869-80.3638 19.2466-79.5235 19.2432-78.1358L18.8525-55.4849C18.8525-54.1245 18.0156-53.4761 16.9209-53.4761C15.833-53.4761 15.0449-54.1279 15.0449-55.5825L15.1982-77.4522C15.1982-78.9341 14.4102-79.7813 13.0293-79.7813C11.6904-79.7813 10.8467-78.9375 10.7944-77.5464L9.81103-55.042C9.51807-48.6636 10.999-46.187 15.8081-43.9898C17.0254-43.4526 17.4331-42.6997 17.3877-41.1963L16.6099 0.919926C16.561 3.8213 18.6504 5.49513 21.4678 5.49513ZM48.9395-24.4126L47.8438 0.0537217C47.6553 3.8213 49.8843 5.49513 52.6563 5.49513C55.5225 5.49513 57.6119 3.83497 57.6119 0.895026L57.6119-78.021C57.6119-79.5723 56.7862-80.3638 55.5484-80.3638C54.2652-80.3638 53.5157-79.6279 52.648-78.4048C46.541-69.895 42.8902-55.1621 42.8902-38.9844L42.8902-36.0528C42.8902-33.0142 43.7339-31.3755 45.6382-30.0152L47.1714-28.9033C48.4898-27.9302 49.0337-26.5415 48.9395-24.4126Z"/>
  </g>
 </g>
</svg>
